<svg width="1920" height="525" viewBox="0 0 1920 525" fill="none" xmlns="http://www.w3.org/2000/svg">
<g filter="url(#filter0_d_8_92)">
<path d="M1095.75 72.25L24.5552 91.313C10.9236 91.5556 0 102.675 0 116.309V499.5C0 513.307 11.1928 524.5 25 524.5H1920V125.5L1871.61 121.292C1869.48 121.107 1867.38 121.872 1865.87 123.382C1864.51 124.738 1862.67 125.5 1860.76 125.5H1849.4C1845.52 125.5 1841.69 126.404 1838.22 128.139L1824.05 135.223C1820.09 137.205 1815.67 138.098 1811.25 137.81L1787.4 136.254C1784.82 136.086 1782.27 135.517 1779.86 134.568L1714.98 109.007C1711.22 107.524 1707.15 106.977 1703.13 107.412L1684.44 109.432C1682.49 109.643 1680.57 110.084 1678.72 110.744L1654.18 119.506C1651.42 120.494 1648.84 121.963 1646.59 123.844L1640.73 128.724C1635.18 133.347 1627.91 135.345 1620.78 134.204L1616.11 133.458C1614.21 133.154 1612.35 132.631 1610.57 131.901L1587.97 122.63C1585.34 121.551 1582.55 120.929 1579.71 120.789L1541.55 118.912C1539.36 118.805 1537.19 118.409 1535.1 117.735L1515 111.25L1489.41 104.033C1486.98 103.348 1484.68 102.3 1482.56 100.925L1440.23 73.3743C1439.08 72.626 1437.87 71.9737 1436.61 71.4238L1405.73 57.9114C1403.59 56.9751 1401.33 56.3433 1399.01 56.0346L1380 53.5L1344.71 47.0833C1340.79 46.3714 1336.76 46.6045 1332.96 47.7632L1307.36 55.5542C1305.29 56.1821 1303.16 56.5404 1301 56.6202L1243.5 58.75L1146.66 53.8731C1141.82 53.6296 1137.02 54.7954 1132.84 57.2288L1112.83 68.8627C1109.01 71.0813 1104.67 72.25 1100.26 72.25H1095.75Z" fill="url(#paint0_linear_8_92)"/>
</g>
<defs>
<filter id="filter0_d_8_92" x="-50" y="0.679993" width="2020" height="577.82" filterUnits="userSpaceOnUse" color-interpolation-filters="sRGB">
<feFlood flood-opacity="0" result="BackgroundImageFix"/>
<feColorMatrix in="SourceAlpha" type="matrix" values="0 0 0 0 0 0 0 0 0 0 0 0 0 0 0 0 0 0 127 0" result="hardAlpha"/>
<feOffset dy="4"/>
<feGaussianBlur stdDeviation="25"/>
<feComposite in2="hardAlpha" operator="out"/>
<feColorMatrix type="matrix" values="0 0 0 0 0 0 0 0 0 0 0 0 0 0 0 0 0 0 0.25 0"/>
<feBlend mode="normal" in2="BackgroundImageFix" result="effect1_dropShadow_8_92"/>
<feBlend mode="normal" in="SourceGraphic" in2="effect1_dropShadow_8_92" result="shape"/>
</filter>
<linearGradient id="paint0_linear_8_92" x1="1483.13" y1="46" x2="1483.13" y2="416.5" gradientUnits="userSpaceOnUse">
<stop stop-color="#405D75"/>
<stop offset="0.0001" stop-color="#405E76"/>
<stop offset="0.614583" stop-color="#2C4152"/>
</linearGradient>
</defs>
</svg>
