<svg width="360" height="360" viewBox="0 0 360 360" fill="none" xmlns="http://www.w3.org/2000/svg">
<g filter="url(#filter0_i_219_27)">
<mask id="mask0_219_27" style="mask-type:alpha" maskUnits="userSpaceOnUse" x="0" y="0" width="360" height="360">
<rect width="360" height="360" rx="72" fill="url(#paint0_linear_219_27)"/>
<mask id="mask1_219_27" style="mask-type:alpha" maskUnits="userSpaceOnUse" x="0" y="121" width="360" height="239">
<path d="M0 121H360V288C360 327.765 327.764 360 288 360H72C32.2355 360 0 327.765 0 288V121Z" fill="#D9D9D9"/>
</mask>
<g mask="url(#mask1_219_27)">
<path d="M-56.784 144.291L-58.1955 145.13C-64.5641 148.918 -71.8364 150.917 -79.246 150.917H-83.2499C-114.04 150.917 -139 175.877 -139 206.667V287.667C-139 327.431 -106.765 359.667 -67 359.667H427.424C467.188 359.667 499.424 327.431 499.424 287.667V205.435C499.424 198.107 494.367 191.747 487.227 190.095L486.066 189.827C484.196 189.394 482.246 189.45 480.404 189.988C478.331 190.594 476.128 190.588 474.059 189.969L469.106 188.488C465.105 187.292 460.873 187.096 456.779 187.917L452.816 188.39C448.496 188.905 444.125 188.819 439.829 188.134L438.494 187.921C436.391 187.586 434.325 187.048 432.325 186.315L431.741 186.101C425.643 183.868 418.998 183.596 412.737 185.324L410.376 185.976C406.95 186.922 403.343 187.001 399.879 186.207C397.594 185.684 395.238 185.538 392.906 185.777L389.114 186.165C385.853 186.498 382.64 187.191 379.531 188.23L374.812 189.806C372.603 190.545 370.323 191.053 368.01 191.322L364.88 191.687C362.169 192.003 359.421 191.738 356.82 190.908C355.795 190.581 354.799 190.169 353.843 189.675L344.492 184.846C340.718 182.897 336.779 181.286 332.722 180.031L312.136 173.667L272.235 155.917L271.835 155.774C266.962 154.041 261.915 152.842 256.783 152.199L256.155 152.121C249.783 151.322 243.56 149.612 237.675 147.043C233.295 145.131 228.723 143.693 224.037 142.753L218.617 141.667L198.675 140.112C197.022 139.983 195.36 140.176 193.781 140.68C191.75 141.327 189.589 141.459 187.494 141.061L184.457 140.485C182.466 140.108 180.527 139.489 178.685 138.644L170.33 134.812C167.983 133.735 165.39 133.307 162.821 133.574C160.644 133.799 158.444 133.527 156.388 132.778L156.078 132.665C152.96 131.528 149.564 131.398 146.368 132.292L140.56 133.917C137.256 134.579 133.867 134.71 130.522 134.303L127.342 133.917C121.645 132.611 115.678 132.982 110.184 134.977C106.211 136.419 101.972 137.021 97.7544 136.739L93.5121 136.456C90.6338 136.263 87.7777 135.822 84.9757 135.136L70.5022 131.593C68.7152 131.156 66.8321 131.348 65.1703 132.137C63.7554 132.809 62.1745 133.05 60.6236 132.832L52.6872 131.713C48.9479 131.186 45.1476 131.273 41.4364 131.97L36.844 132.833C33.0454 133.547 29.138 133.44 25.3843 132.518L20.9849 131.438C19.5896 131.096 18.1317 131.099 16.7381 131.449C15.5072 131.757 14.2243 131.796 12.977 131.564L7.31369 130.507C-1.5585 128.853 -10.7215 130.897 -18.0486 136.167L-20.3462 137.515C-25.4567 140.514 -31.4817 141.557 -37.3029 140.45C-40.8809 139.77 -44.5657 139.897 -48.0885 140.822L-49.192 141.111C-51.8587 141.811 -54.4142 142.882 -56.784 144.291Z" fill="url(#paint1_linear_219_27)"/>
<path d="M225.35 208.75L-68.2843 213.989C-107.542 214.689 -139 246.714 -139 285.977V287.5C-139 327.265 -106.765 359.5 -67 359.5H430.031C468.355 359.5 499.424 328.432 499.424 290.108V237.944C499.424 231.469 494.473 226.069 488.023 225.507L483.334 225.098C482.625 225.036 481.926 225.291 481.424 225.795C480.973 226.247 480.361 226.5 479.723 226.5H476.432C474.824 226.5 473.238 226.876 471.801 227.596L470.037 228.48C467.071 229.967 463.762 230.636 460.451 230.42L458.235 230.275C455.452 230.093 452.715 229.479 450.122 228.455L435.18 222.554C431.349 221.041 427.207 220.482 423.112 220.926C421.124 221.142 419.168 221.591 417.286 222.265L411.707 224.262C410.343 224.751 409.076 225.476 407.964 226.405L407.522 226.774C405.069 228.824 401.848 229.71 398.692 229.204C397.85 229.069 397.028 228.837 396.24 228.513L393.508 227.389C389.664 225.808 385.578 224.896 381.427 224.691L379.104 224.577C374.712 224.36 370.368 223.565 366.183 222.212L364.756 221.75C358.309 219.928 352.176 217.138 346.565 213.478L343.359 211.386C340.67 209.632 337.841 208.102 334.901 206.813L334.261 206.532C329.675 204.521 324.83 203.164 319.867 202.5L313.831 201.4C308.784 200.48 303.591 200.782 298.684 202.279C296.025 203.09 293.273 203.553 290.495 203.656L274.479 204.25L246.31 202.828C242.072 202.614 237.862 203.638 234.195 205.776L232.323 206.867C230.206 208.1 227.8 208.75 225.35 208.75Z" fill="url(#paint2_linear_219_27)"/>
<path d="M-125.658 131.667H-127.289C-127.945 131.667 -128.598 131.584 -129.233 131.421C-134.182 130.152 -139 133.89 -139 139V287.666C-139 327.431 -106.765 359.666 -67 359.666H482.799C491.98 359.666 499.424 352.223 499.424 343.041C499.424 333.86 491.98 326.416 482.799 326.416H450.667C442.884 326.416 435.215 324.553 428.299 320.983L380.717 296.416L340.067 275.166L328.036 267.812C322.45 264.398 316.424 261.761 310.125 259.975L294.929 255.666L284.953 251.416L274.398 246.655C271.471 245.335 268.389 244.391 265.224 243.847C262.59 243.395 260.011 242.665 257.53 241.67L256.274 241.166L242.309 233.166L221.859 219.166L213.629 213.916L204.164 208.946C203.494 208.594 202.784 208.324 202.05 208.14C201.458 207.991 200.882 207.786 200.329 207.528L193.679 204.416L182.706 200.416L165.997 195.166L163.828 194.157C160.63 192.668 157.269 191.558 153.814 190.847C150.804 190.228 147.74 189.917 144.668 189.917H142.347C140.328 189.917 138.312 189.749 136.32 189.417L130.834 189.167L128.255 188.723C124.166 188.021 120.016 187.75 115.871 187.917L115.547 187.954C111.448 188.428 107.315 188.549 103.195 188.315L100.518 188.163C97.6245 187.999 94.7507 187.582 91.9298 186.917L86.4434 185.417L83.7295 184.906C80.2261 184.248 76.6691 183.917 73.1044 183.917H66.8797C65.7954 183.917 64.7161 184.064 63.6716 184.355C61.7585 184.888 59.7429 184.936 57.8067 184.494L55.2703 183.917L44.048 180.917L35.8582 177.713C34.5096 177.185 33.088 176.867 31.6431 176.771C30.6059 176.701 29.5794 176.518 28.5823 176.224L23.1335 174.618C22.1211 174.319 21.0647 174.198 20.011 174.26C18.282 174.362 16.5595 173.971 15.0444 173.131L7.88731 169.167L-3.83374 164.167L-11.0659 160.417L-23.2877 153.356C-24.9459 152.398 -26.6832 151.584 -28.4806 150.924C-31.6493 149.759 -34.9761 149.081 -38.3479 148.912L-43.2365 148.667L-67.1773 144.667L-68.3758 144.6C-73.5469 144.312 -78.6717 143.466 -83.661 142.076L-86.5524 141.271C-88.595 140.702 -90.5849 139.959 -92.5002 139.05C-96.8571 136.981 -101.576 135.783 -106.392 135.525L-108.829 135.394C-111.632 135.243 -114.39 134.619 -116.985 133.548L-117.74 133.237C-120.251 132.2 -122.941 131.667 -125.658 131.667Z" fill="url(#paint3_linear_219_27)"/>
<path d="M-121.297 215.291L-136.177 214.936C-136.717 214.923 -137.249 215.069 -137.707 215.356C-138.511 215.86 -139 216.743 -139 217.693V288.167C-139 327.931 -106.765 360.167 -67 360.167H480.182C490.809 360.167 499.424 351.552 499.424 340.925C499.424 330.69 491.411 322.246 481.19 321.71L451.791 320.167L419.87 314.167C415.227 313.668 410.647 312.696 406.202 311.267L387.528 305.262C386.815 305.033 386.072 304.917 385.323 304.917C383.486 304.917 381.718 304.214 380.382 302.953L379.756 302.363C378.747 301.411 377.538 300.694 376.217 300.266L336.576 287.417L305.394 277.687C301.102 276.348 296.632 275.667 292.135 275.667H291.673C286.896 275.667 282.154 274.848 277.654 273.247L272.458 271.399C270.175 270.587 267.743 270.28 265.33 270.5C262.34 270.773 259.479 271.844 257.046 273.603L251.887 277.331C250.686 278.199 249.242 278.667 247.76 278.667C246.958 278.667 246.162 278.53 245.406 278.262L235.078 274.6C229.119 272.487 222.903 271.183 216.597 270.722L208.059 270.098C204.165 269.813 200.367 268.747 196.894 266.964C193.616 265.281 190.049 264.236 186.382 263.885L168.175 262.14C161.437 261.494 154.822 259.901 148.529 257.408L107.981 241.348C107.262 241.063 106.496 240.917 105.722 240.917C104.691 240.917 103.675 240.656 102.771 240.16L95.32 236.069C94.2411 235.477 93.0302 235.167 91.7995 235.167C90.7354 235.167 89.6841 234.934 88.719 234.486L55.6797 219.148C53.9504 218.346 52.0199 218.081 50.1382 218.388L48.5005 218.655C44.9107 219.241 41.4154 217.177 40.1947 213.751C39.9387 213.032 39.575 212.357 39.1161 211.747L32.019 202.325C31.1137 201.123 29.6964 200.417 28.1916 200.417H28.0027C27.2427 200.417 26.4976 200.627 25.8495 201.024C23.915 202.209 21.3864 201.608 20.1921 199.679L19.1629 198.017C18.3546 196.711 16.9283 195.917 15.3927 195.917C14.4074 195.917 13.4502 195.588 12.6721 194.984L5.26584 189.23C4.36696 188.531 3.31136 188.063 2.19048 187.865C0.555359 187.575 -1.12935 187.877 -2.56276 188.715L-3.7874 189.431C-5.45088 190.404 -7.3432 190.917 -9.2702 190.917H-10.6929C-13.2331 190.917 -15.7374 191.517 -18.0013 192.669L-28.8249 198.178C-29.9829 198.767 -31.3888 198.543 -32.3065 197.623C-32.9134 197.015 -33.7524 196.696 -34.6103 196.748L-50.4441 197.71C-55.4005 198.012 -60.2505 199.277 -64.7224 201.435L-82.6941 210.11C-88.3698 212.849 -94.9459 213.031 -100.765 210.61L-103.758 209.364C-104.469 209.069 -105.231 208.917 -106 208.917C-107.343 208.917 -108.645 209.38 -109.686 210.228L-111.992 212.106C-114.615 214.243 -117.915 215.372 -121.297 215.291Z" fill="url(#paint4_linear_219_27)"/>
</g>
</mask>
<g mask="url(#mask0_219_27)">
<rect x="-140" width="640" height="360" fill="url(#paint5_linear_219_27)"/>
<mask id="mask2_219_27" style="mask-type:alpha" maskUnits="userSpaceOnUse" x="-140" y="121" width="640" height="239">
<rect x="-140" y="121" width="640" height="239" fill="#D9D9D9"/>
</mask>
<g mask="url(#mask2_219_27)">
<path d="M-57.022 144.293L-62.8523 147.751C-66.7128 150.041 -71.1187 151.25 -75.6074 151.25H-115C-128.807 151.25 -140 162.443 -140 176.25V335C-140 348.807 -128.807 360 -115 360H475C488.807 360 500 348.807 500 335V205.807C500 198.457 494.927 192.079 487.764 190.426L486.609 190.16C484.734 189.727 482.78 189.783 480.933 190.322C478.855 190.928 476.647 190.921 474.572 190.302L469.455 188.776C465.544 187.61 461.408 187.418 457.407 188.219L457.25 188.25L450.201 189.089C447.911 189.362 445.595 189.316 443.318 188.954L438.134 188.129C436.548 187.877 434.991 187.473 433.482 186.921L430.259 185.744C425.375 183.959 420.056 183.742 415.042 185.122L410.732 186.309C407.298 187.255 403.682 187.335 400.209 186.541C397.919 186.017 395.558 185.872 393.22 186.11L387.248 186.72C385.421 186.906 383.621 187.293 381.88 187.873L374.201 190.433C372.571 190.976 370.89 191.35 369.183 191.548L365.123 192.021C362.405 192.337 359.652 192.071 357.045 191.241C356.017 190.914 355.018 190.502 354.059 190.008L340.967 183.263C339.658 182.589 338.293 182.032 336.886 181.598L312.25 174L272.25 156.25L267.062 154.409C265.359 153.805 263.596 153.387 261.803 153.163L250.076 151.697C247.704 151.401 245.387 150.765 243.196 149.811L233.454 145.569C231.823 144.858 230.12 144.324 228.375 143.975L218.5 142L198.508 140.445C196.852 140.316 195.186 140.509 193.603 141.013C191.566 141.661 189.401 141.792 187.301 141.395L184.239 140.816C182.254 140.44 180.321 139.825 178.484 138.984L170.096 135.146C167.742 134.068 165.142 133.64 162.567 133.907C160.384 134.133 158.179 133.86 156.116 133.111L155.807 132.998C152.681 131.861 149.278 131.731 146.074 132.625L140.25 134.25L139.181 134.464C136.577 134.985 133.907 135.087 131.27 134.768L127 134.25L125.418 133.888C120.738 132.819 115.85 133.119 111.336 134.753L108.686 135.713C105.431 136.891 101.966 137.381 98.512 137.151L90.9122 136.644C89.4734 136.548 88.0457 136.328 86.6448 135.986L70.0185 131.926C68.2275 131.489 66.3406 131.681 64.6745 132.47C63.256 133.142 61.6717 133.384 60.1174 133.165L50.5594 131.821C47.8711 131.443 45.1391 131.505 42.4708 132.005L35.8082 133.255C32.3098 133.911 28.7116 133.812 25.2543 132.965L20.3799 131.772C18.9811 131.429 17.5198 131.433 16.1226 131.782C14.8887 132.09 13.6028 132.13 12.3523 131.897L3.23213 130.2C-3.46419 128.954 -10.3789 130.495 -15.9133 134.465L-18.75 136.5L-21.0485 137.845C-26.1755 140.847 -32.2156 141.89 -38.0522 140.783C-41.6391 140.103 -45.3323 140.23 -48.8639 141.155L-50.6009 141.61C-52.8559 142.2 -55.0172 143.103 -57.022 144.293Z" fill="url(#paint6_linear_219_27)"/>
<g filter="url(#filter1_d_219_27)">
<path d="M225.25 209.083L-115.445 215.146C-129.076 215.389 -140 226.509 -140 240.142V334.833C-140 348.64 -128.807 359.833 -115 359.833H500V226.833L483.869 225.431C483.16 225.369 482.459 225.624 481.956 226.127C481.504 226.579 480.891 226.833 480.252 226.833H476.95C475.339 226.833 473.75 227.208 472.308 227.929L470.541 228.813C467.567 230.3 464.252 230.969 460.934 230.753L458.4 230.588C455.816 230.419 453.273 229.85 450.864 228.901L435.479 222.84C431.716 221.358 427.649 220.81 423.629 221.245L423.438 221.266C421.486 221.477 419.566 221.917 417.717 222.577L412.067 224.595C410.7 225.083 409.429 225.809 408.314 226.738L407.875 227.104C405.413 229.156 402.184 230.043 399.019 229.536C398.176 229.401 397.351 229.17 396.561 228.845L391.972 226.963C389.343 225.884 386.55 225.262 383.711 225.122L376.051 224.746C373.86 224.638 371.692 224.242 369.604 223.569L365 222.083L358.911 220.366C356.484 219.681 354.175 218.634 352.062 217.258L341.228 210.208C340.078 209.459 338.868 208.807 337.612 208.257L330.726 205.245C328.586 204.308 326.325 203.677 324.01 203.368L320 202.833L312.208 201.417C308.293 200.705 304.264 200.938 300.457 202.096L297.858 202.887C295.795 203.515 293.659 203.874 291.504 203.953L274.5 204.583L246.258 203.161C242.011 202.947 237.793 203.971 234.117 206.108L232.242 207.198C230.119 208.433 227.706 209.083 225.25 209.083Z" fill="url(#paint7_linear_219_27)"/>
</g>
<g filter="url(#filter2_d_219_27)">
<path d="M-131.793 131.349L-140 129.25V335C-140 348.807 -128.807 360 -115 360H483.375C492.557 360 500 352.557 500 343.375C500 334.193 492.557 326.75 483.375 326.75H439.25L381 296.75L340.25 275.5L322.67 264.781C320.732 263.599 318.643 262.687 316.459 262.069L295 256L285 251.75L272.9 246.305C270.975 245.439 268.947 244.819 266.865 244.463L263.856 243.947C262.123 243.65 260.427 243.171 258.795 242.518L256.25 241.5L242.25 233.5L221.75 219.5L213.5 214.25L204.011 209.28C203.34 208.928 202.628 208.657 201.892 208.473C201.299 208.325 200.721 208.12 200.167 207.861L193.5 204.75L182.5 200.75L165.75 195.5L161.396 193.479C159.638 192.662 157.791 192.053 155.892 191.664L151.486 190.76C149.833 190.421 148.15 190.25 146.462 190.25H141.069C139.692 190.25 138.317 190.136 136.959 189.91L136 189.75L130.5 189.5L124.344 188.445C122.619 188.149 120.869 188.035 119.12 188.105L115.5 188.25L111.134 188.754C109.714 188.918 108.283 188.959 106.855 188.879L97.9339 188.374C96.4807 188.291 95.0376 188.082 93.6208 187.749L91.5 187.25L86 185.75L80.2837 184.678C78.7645 184.393 77.2222 184.25 75.6765 184.25H66.3879C65.301 184.25 64.2191 184.397 63.1719 184.688C61.254 185.221 59.2339 185.269 57.2929 184.828L54.75 184.25L43.5 181.25L35.2906 178.046C33.9382 177.519 32.5129 177.201 31.0643 177.104C30.0246 177.035 28.9956 176.852 27.9959 176.558L22.534 174.951C21.519 174.653 20.46 174.532 19.4038 174.594C17.6702 174.696 15.9432 174.304 14.4233 173.464L7.25 169.5L-4.5 164.5L-11.75 160.75L-24.6397 153.322C-25.8776 152.609 -27.1744 152.003 -28.5158 151.511L-30.4347 150.807C-32.798 149.941 -35.2786 149.436 -37.7926 149.31L-44 149L-68 145L-74.3006 144.65C-76.095 144.55 -77.8734 144.257 -79.6049 143.776L-88.4303 141.325C-89.8075 140.942 -91.1495 140.442 -92.4413 139.83L-95.551 138.357C-98.4888 136.966 -101.67 136.161 -104.916 135.987L-109.755 135.727C-112.565 135.577 -115.329 134.953 -117.93 133.882L-118.686 133.571C-121.204 132.534 -123.901 132 -126.625 132C-128.368 132 -130.104 131.781 -131.793 131.349Z" fill="url(#paint8_linear_219_27)"/>
</g>
<g filter="url(#filter3_d_219_27)">
<path d="M-122.248 215.625L-137.172 215.27C-137.712 215.257 -138.244 215.403 -138.702 215.689C-139.509 216.193 -140 217.078 -140 218.031V360.5H500V323L452.25 320.5L420.25 314.5L415.79 314.022C414.101 313.841 412.435 313.489 410.818 312.97L387.828 305.596C387.114 305.367 386.368 305.25 385.618 305.25C383.776 305.25 382.003 304.547 380.661 303.284L380.038 302.697C379.025 301.744 377.814 301.028 376.491 300.6L336.75 287.75L302.629 277.13C300.224 276.381 297.719 276 295.199 276H288.804C285.956 276 283.128 275.513 280.444 274.561L272.474 271.733C270.185 270.92 267.748 270.614 265.329 270.834C262.332 271.106 259.462 272.179 257.02 273.939L251.854 277.664C250.649 278.532 249.2 279 247.715 279C246.911 279 246.113 278.863 245.355 278.595L229.167 272.87C227.065 272.127 224.873 271.668 222.65 271.506L207.062 270.369C203.721 270.126 200.464 269.213 197.483 267.686L196.007 266.93C193.194 265.49 190.134 264.596 186.989 264.295L161.27 261.836C158.935 261.613 156.643 261.063 154.462 260.201L107.591 241.681C106.87 241.396 106.102 241.25 105.327 241.25C104.292 241.25 103.274 240.99 102.367 240.493L94.8996 236.403C93.8173 235.811 92.6032 235.5 91.3693 235.5C90.3026 235.5 89.2486 235.268 88.2807 234.82L55.1591 219.481C53.4262 218.679 51.4926 218.414 49.6077 218.721L47.9478 218.991C44.3573 219.576 40.8615 217.512 39.638 214.086C39.3808 213.366 39.0156 212.69 38.5548 212.079L31.4439 202.662C30.5346 201.458 29.1129 200.75 27.6039 200.75H27.4143C26.6529 200.75 25.9062 200.96 25.2565 201.357C23.316 202.543 20.7822 201.941 19.5828 200.008L18.5561 198.354C17.744 197.046 16.3133 196.25 14.7733 196.25C13.7859 196.25 12.8264 195.922 12.046 195.317L4.62376 189.565C3.7215 188.865 2.66257 188.396 1.53844 188.198C-0.100525 187.909 -1.78894 188.21 -3.22652 189.049L-4.45328 189.764C-6.12115 190.737 -8.01744 191.25 -9.94835 191.25H-11.3762C-13.9228 191.25 -16.4334 191.851 -18.7041 193.004L-29.5546 198.512C-30.715 199.101 -32.1226 198.877 -33.0427 197.957C-33.6515 197.349 -34.492 197.03 -35.3513 197.082L-53.8447 198.203C-57.0839 198.399 -60.2539 199.224 -63.1778 200.632L-83.5547 210.443C-89.2459 213.183 -95.8357 213.365 -101.67 210.944L-104.671 209.698C-105.383 209.402 -106.147 209.25 -106.918 209.25C-108.265 209.25 -109.57 209.713 -110.616 210.563L-112.926 212.44C-115.555 214.576 -118.861 215.706 -122.248 215.625Z" fill="url(#paint9_linear_219_27)"/>
</g>
</g>
<g filter="url(#filter4_d_219_27)">
<path d="M155.104 172.12H251.872V209.56H155.104V172.12ZM158.56 283H111.904V81.4H264.256V118.84H158.56V283Z" fill="white"/>
</g>
</g>
</g>
<defs>
<filter id="filter0_i_219_27" x="0" y="0" width="360" height="364" filterUnits="userSpaceOnUse" color-interpolation-filters="sRGB">
<feFlood flood-opacity="0" result="BackgroundImageFix"/>
<feBlend mode="normal" in="SourceGraphic" in2="BackgroundImageFix" result="shape"/>
<feColorMatrix in="SourceAlpha" type="matrix" values="0 0 0 0 0 0 0 0 0 0 0 0 0 0 0 0 0 0 127 0" result="hardAlpha"/>
<feOffset dy="4"/>
<feGaussianBlur stdDeviation="31.5"/>
<feComposite in2="hardAlpha" operator="arithmetic" k2="-1" k3="1"/>
<feColorMatrix type="matrix" values="0 0 0 0 0 0 0 0 0 0 0 0 0 0 0 0 0 0 0.25 0"/>
<feBlend mode="normal" in2="shape" result="effect1_innerShadow_219_27"/>
</filter>
<filter id="filter1_d_219_27" x="-190" y="155.013" width="740" height="258.82" filterUnits="userSpaceOnUse" color-interpolation-filters="sRGB">
<feFlood flood-opacity="0" result="BackgroundImageFix"/>
<feColorMatrix in="SourceAlpha" type="matrix" values="0 0 0 0 0 0 0 0 0 0 0 0 0 0 0 0 0 0 127 0" result="hardAlpha"/>
<feOffset dy="4"/>
<feGaussianBlur stdDeviation="25"/>
<feComposite in2="hardAlpha" operator="out"/>
<feColorMatrix type="matrix" values="0 0 0 0 0 0 0 0 0 0 0 0 0 0 0 0 0 0 0.25 0"/>
<feBlend mode="normal" in2="BackgroundImageFix" result="effect1_dropShadow_219_27"/>
<feBlend mode="normal" in="SourceGraphic" in2="effect1_dropShadow_219_27" result="shape"/>
</filter>
<filter id="filter2_d_219_27" x="-190" y="83.25" width="740" height="330.75" filterUnits="userSpaceOnUse" color-interpolation-filters="sRGB">
<feFlood flood-opacity="0" result="BackgroundImageFix"/>
<feColorMatrix in="SourceAlpha" type="matrix" values="0 0 0 0 0 0 0 0 0 0 0 0 0 0 0 0 0 0 127 0" result="hardAlpha"/>
<feOffset dy="4"/>
<feGaussianBlur stdDeviation="25"/>
<feComposite in2="hardAlpha" operator="out"/>
<feColorMatrix type="matrix" values="0 0 0 0 0 0 0 0 0 0 0 0 0 0 0 0 0 0 0.25 0"/>
<feBlend mode="normal" in2="BackgroundImageFix" result="effect1_dropShadow_219_27"/>
<feBlend mode="normal" in="SourceGraphic" in2="effect1_dropShadow_219_27" result="shape"/>
</filter>
<filter id="filter3_d_219_27" x="-190" y="134.091" width="740" height="272.409" filterUnits="userSpaceOnUse" color-interpolation-filters="sRGB">
<feFlood flood-opacity="0" result="BackgroundImageFix"/>
<feColorMatrix in="SourceAlpha" type="matrix" values="0 0 0 0 0 0 0 0 0 0 0 0 0 0 0 0 0 0 127 0" result="hardAlpha"/>
<feOffset dy="-4"/>
<feGaussianBlur stdDeviation="25"/>
<feComposite in2="hardAlpha" operator="out"/>
<feColorMatrix type="matrix" values="0 0 0 0 0 0 0 0 0 0 0 0 0 0 0 0 0 0 0.25 0"/>
<feBlend mode="normal" in2="BackgroundImageFix" result="effect1_dropShadow_219_27"/>
<feBlend mode="normal" in="SourceGraphic" in2="effect1_dropShadow_219_27" result="shape"/>
</filter>
<filter id="filter4_d_219_27" x="107.904" y="81.3999" width="160.352" height="209.6" filterUnits="userSpaceOnUse" color-interpolation-filters="sRGB">
<feFlood flood-opacity="0" result="BackgroundImageFix"/>
<feColorMatrix in="SourceAlpha" type="matrix" values="0 0 0 0 0 0 0 0 0 0 0 0 0 0 0 0 0 0 127 0" result="hardAlpha"/>
<feOffset dy="4"/>
<feGaussianBlur stdDeviation="2"/>
<feComposite in2="hardAlpha" operator="out"/>
<feColorMatrix type="matrix" values="0 0 0 0 0 0 0 0 0 0 0 0 0 0 0 0 0 0 0.25 0"/>
<feBlend mode="normal" in2="BackgroundImageFix" result="effect1_dropShadow_219_27"/>
<feBlend mode="normal" in="SourceGraphic" in2="effect1_dropShadow_219_27" result="shape"/>
</filter>
<linearGradient id="paint0_linear_219_27" x1="180" y1="0" x2="180" y2="360" gradientUnits="userSpaceOnUse">
<stop offset="0.0104167" stop-color="#5E7C92"/>
<stop offset="1" stop-color="white"/>
</linearGradient>
<linearGradient id="paint1_linear_219_27" x1="180.212" y1="127.917" x2="180.212" y2="359.667" gradientUnits="userSpaceOnUse">
<stop stop-color="#4F6D85"/>
<stop offset="1" stop-color="#648AA8"/>
</linearGradient>
<linearGradient id="paint2_linear_219_27" x1="354.157" y1="200" x2="354.157" y2="323.5" gradientUnits="userSpaceOnUse">
<stop stop-color="#405D75"/>
<stop offset="0.0001" stop-color="#405E76"/>
<stop offset="0.614583" stop-color="#2C4152"/>
</linearGradient>
<linearGradient id="paint3_linear_219_27" x1="149.912" y1="128.917" x2="149.912" y2="326.417" gradientUnits="userSpaceOnUse">
<stop stop-color="#304D65"/>
<stop offset="1" stop-color="#385871"/>
<stop offset="1" stop-color="#3A5D7A"/>
</linearGradient>
<linearGradient id="paint4_linear_219_27" x1="180.212" y1="187.417" x2="180.212" y2="360.167" gradientUnits="userSpaceOnUse">
<stop stop-color="#1C3846"/>
<stop offset="1" stop-color="#18303C"/>
</linearGradient>
<linearGradient id="paint5_linear_219_27" x1="180" y1="0" x2="180" y2="360" gradientUnits="userSpaceOnUse">
<stop offset="0.0104167" stop-color="#1A2730"/>
<stop offset="1"/>
</linearGradient>
<linearGradient id="paint6_linear_219_27" x1="180" y1="128.25" x2="180" y2="360" gradientUnits="userSpaceOnUse">
<stop stop-color="#2E4452"/>
<stop offset="1"/>
</linearGradient>
<linearGradient id="paint7_linear_219_27" x1="354.375" y1="200.333" x2="354.375" y2="323.833" gradientUnits="userSpaceOnUse">
<stop stop-color="#253745"/>
<stop offset="0.0001" stop-color="#253745"/>
<stop offset="0.614583" stop-color="#1A2833"/>
</linearGradient>
<linearGradient id="paint8_linear_219_27" x1="149.625" y1="129.25" x2="149.625" y2="326.75" gradientUnits="userSpaceOnUse">
<stop stop-color="#263B4E"/>
<stop offset="0.984375" stop-color="#1F3545"/>
</linearGradient>
<linearGradient id="paint9_linear_219_27" x1="180" y1="187.75" x2="180" y2="360.5" gradientUnits="userSpaceOnUse">
<stop stop-color="#0D1921"/>
<stop offset="1" stop-color="#18303C"/>
</linearGradient>
</defs>
</svg>
