<svg width="360" height="360" viewBox="0 0 360 360" fill="none" xmlns="http://www.w3.org/2000/svg">
<g filter="url(#filter0_i_216_59)">
<rect width="360" height="360" rx="72" fill="url(#paint0_linear_216_59)"/>
<mask id="mask0_216_59" style="mask-type:alpha" maskUnits="userSpaceOnUse" x="0" y="121" width="360" height="239">
<path d="M0 121H360V288C360 327.764 327.764 360 288 360H72C32.2355 360 0 327.764 0 288V121Z" fill="#D9D9D9"/>
</mask>
<g mask="url(#mask0_216_59)">
<path d="M-56.784 144.291L-58.1955 145.13C-64.5641 148.918 -71.8364 150.917 -79.246 150.917H-83.2499C-114.04 150.917 -139 175.877 -139 206.667V287.667C-139 327.431 -106.765 359.667 -67 359.667H427.424C467.188 359.667 499.424 327.431 499.424 287.667V205.435C499.424 198.107 494.367 191.747 487.227 190.095L486.066 189.827C484.196 189.394 482.246 189.45 480.404 189.988C478.331 190.594 476.128 190.588 474.059 189.969L469.106 188.488C465.105 187.292 460.873 187.096 456.779 187.917L452.816 188.39C448.496 188.905 444.125 188.819 439.829 188.134L438.494 187.921C436.391 187.586 434.325 187.048 432.325 186.315L431.741 186.101C425.643 183.868 418.998 183.596 412.737 185.324L410.376 185.976C406.95 186.922 403.343 187.001 399.879 186.207C397.594 185.684 395.238 185.538 392.906 185.777L389.114 186.165C385.853 186.498 382.64 187.191 379.531 188.23L374.812 189.806C372.603 190.545 370.323 191.053 368.01 191.322L364.88 191.687C362.169 192.003 359.421 191.738 356.82 190.908C355.795 190.581 354.799 190.169 353.843 189.675L344.492 184.846C340.718 182.897 336.779 181.286 332.722 180.031L312.136 173.667L272.235 155.917L271.835 155.774C266.962 154.041 261.915 152.842 256.783 152.199L256.155 152.121C249.783 151.322 243.56 149.612 237.675 147.043C233.295 145.131 228.723 143.693 224.037 142.753L218.617 141.667L198.675 140.112C197.022 139.983 195.36 140.176 193.781 140.68C191.75 141.327 189.589 141.459 187.494 141.061L184.457 140.485C182.466 140.108 180.527 139.489 178.685 138.644L170.33 134.812C167.983 133.735 165.39 133.307 162.821 133.574C160.644 133.799 158.444 133.527 156.388 132.778L156.078 132.665C152.96 131.528 149.564 131.398 146.368 132.292L140.56 133.917C137.256 134.579 133.867 134.71 130.522 134.303L127.342 133.917C121.645 132.611 115.678 132.982 110.184 134.977C106.211 136.419 101.972 137.021 97.7544 136.739L93.5121 136.456C90.6338 136.263 87.7777 135.822 84.9757 135.136L70.5022 131.593C68.7152 131.156 66.8321 131.348 65.1703 132.137C63.7554 132.809 62.1745 133.05 60.6236 132.832L52.6872 131.713C48.9479 131.186 45.1476 131.273 41.4364 131.97L36.844 132.833C33.0454 133.547 29.138 133.44 25.3843 132.518L20.9849 131.438C19.5896 131.096 18.1317 131.099 16.7381 131.449C15.5072 131.757 14.2243 131.796 12.977 131.564L7.31369 130.507C-1.5585 128.853 -10.7215 130.897 -18.0486 136.167L-20.3462 137.515C-25.4567 140.514 -31.4817 141.557 -37.3029 140.45C-40.8809 139.77 -44.5657 139.897 -48.0885 140.822L-49.192 141.111C-51.8587 141.811 -54.4142 142.882 -56.784 144.291Z" fill="url(#paint1_linear_216_59)"/>
<g filter="url(#filter1_d_216_59)">
<path d="M225.35 208.75L-68.2843 213.989C-107.542 214.689 -139 246.714 -139 285.977V287.5C-139 327.265 -106.765 359.5 -67 359.5H430.031C468.355 359.5 499.424 328.432 499.424 290.108V237.944C499.424 231.469 494.473 226.069 488.023 225.507L483.334 225.098C482.625 225.036 481.926 225.291 481.424 225.795C480.973 226.247 480.361 226.5 479.723 226.5H476.432C474.824 226.5 473.238 226.876 471.801 227.596L470.037 228.48C467.071 229.967 463.762 230.636 460.451 230.42L458.235 230.275C455.452 230.093 452.715 229.479 450.122 228.455L435.18 222.554C431.349 221.041 427.207 220.482 423.112 220.926C421.124 221.142 419.168 221.591 417.286 222.265L411.707 224.262C410.343 224.751 409.076 225.476 407.964 226.405L407.522 226.774C405.069 228.824 401.848 229.71 398.692 229.204C397.85 229.069 397.028 228.837 396.24 228.513L393.508 227.389C389.664 225.808 385.578 224.896 381.427 224.691L379.104 224.577C374.712 224.36 370.368 223.565 366.183 222.212L364.756 221.75C358.309 219.928 352.176 217.138 346.565 213.478L343.359 211.386C340.67 209.632 337.841 208.102 334.901 206.813L334.261 206.532C329.675 204.521 324.83 203.164 319.867 202.5L313.831 201.4C308.784 200.48 303.591 200.782 298.684 202.279C296.025 203.09 293.273 203.553 290.495 203.656L274.479 204.25L246.31 202.828C242.072 202.614 237.862 203.638 234.195 205.776L232.323 206.867C230.206 208.1 227.8 208.75 225.35 208.75Z" fill="url(#paint2_linear_216_59)"/>
</g>
<g filter="url(#filter2_d_216_59)">
<path d="M-125.658 131.667H-127.289C-127.945 131.667 -128.598 131.584 -129.233 131.421C-134.182 130.152 -139 133.89 -139 139V287.666C-139 327.431 -106.765 359.666 -67 359.666H482.799C491.98 359.666 499.424 352.223 499.424 343.041C499.424 333.86 491.98 326.416 482.799 326.416H450.667C442.884 326.416 435.215 324.553 428.299 320.983L380.717 296.416L340.067 275.166L328.036 267.812C322.45 264.398 316.424 261.761 310.125 259.975L294.929 255.666L284.953 251.416L274.398 246.655C271.471 245.335 268.389 244.391 265.224 243.847C262.59 243.395 260.011 242.665 257.53 241.67L256.274 241.166L242.309 233.166L221.859 219.166L213.629 213.916L204.164 208.946C203.494 208.594 202.784 208.324 202.05 208.14C201.458 207.991 200.882 207.786 200.329 207.528L193.679 204.416L182.706 200.416L165.997 195.166L163.828 194.157C160.63 192.668 157.269 191.558 153.814 190.847C150.804 190.228 147.74 189.917 144.668 189.917H142.347C140.328 189.917 138.312 189.749 136.32 189.417L130.834 189.167L128.255 188.723C124.166 188.021 120.016 187.75 115.871 187.917L115.547 187.954C111.448 188.428 107.315 188.549 103.195 188.315L100.518 188.163C97.6245 187.999 94.7507 187.582 91.9298 186.917L86.4434 185.417L83.7295 184.906C80.2261 184.248 76.6691 183.917 73.1044 183.917H66.8797C65.7954 183.917 64.7161 184.064 63.6716 184.355C61.7585 184.888 59.7429 184.936 57.8067 184.494L55.2703 183.917L44.048 180.917L35.8582 177.713C34.5096 177.185 33.088 176.867 31.6431 176.771C30.6059 176.701 29.5794 176.518 28.5823 176.224L23.1335 174.618C22.1211 174.319 21.0647 174.198 20.011 174.26C18.282 174.362 16.5595 173.971 15.0444 173.131L7.88731 169.167L-3.83374 164.167L-11.0659 160.417L-23.2877 153.356C-24.9459 152.398 -26.6832 151.584 -28.4806 150.924C-31.6493 149.759 -34.9761 149.081 -38.3479 148.912L-43.2365 148.667L-67.1773 144.667L-68.3758 144.6C-73.5469 144.312 -78.6717 143.466 -83.661 142.076L-86.5524 141.271C-88.595 140.702 -90.5849 139.959 -92.5002 139.05C-96.8571 136.981 -101.576 135.783 -106.392 135.525L-108.829 135.394C-111.632 135.243 -114.39 134.619 -116.985 133.548L-117.74 133.237C-120.251 132.2 -122.941 131.667 -125.658 131.667Z" fill="url(#paint3_linear_216_59)"/>
</g>
<g filter="url(#filter3_d_216_59)">
<path d="M-121.297 215.291L-136.177 214.936C-136.717 214.923 -137.249 215.069 -137.707 215.356C-138.511 215.86 -139 216.743 -139 217.693V288.167C-139 327.931 -106.765 360.167 -67 360.167H480.182C490.809 360.167 499.424 351.552 499.424 340.925C499.424 330.69 491.411 322.246 481.19 321.71L451.791 320.167L419.87 314.167C415.227 313.668 410.647 312.696 406.202 311.267L387.528 305.262C386.815 305.033 386.072 304.917 385.323 304.917C383.486 304.917 381.718 304.214 380.382 302.953L379.756 302.363C378.747 301.411 377.538 300.694 376.217 300.266L336.576 287.417L305.394 277.687C301.102 276.348 296.632 275.667 292.135 275.667H291.673C286.896 275.667 282.154 274.848 277.654 273.247L272.458 271.399C270.175 270.587 267.743 270.28 265.33 270.5C262.34 270.773 259.479 271.844 257.046 273.603L251.887 277.331C250.686 278.199 249.242 278.667 247.76 278.667C246.958 278.667 246.162 278.53 245.406 278.262L235.078 274.6C229.119 272.487 222.903 271.183 216.597 270.722L208.059 270.098C204.165 269.813 200.367 268.747 196.894 266.964C193.616 265.281 190.049 264.236 186.382 263.885L168.175 262.14C161.437 261.494 154.822 259.901 148.529 257.408L107.981 241.348C107.262 241.063 106.496 240.917 105.722 240.917C104.691 240.917 103.675 240.656 102.771 240.16L95.32 236.069C94.2411 235.477 93.0302 235.167 91.7995 235.167C90.7354 235.167 89.6841 234.934 88.719 234.486L55.6797 219.148C53.9504 218.346 52.0199 218.081 50.1382 218.388L48.5005 218.655C44.9107 219.241 41.4154 217.177 40.1947 213.751C39.9387 213.032 39.575 212.357 39.1161 211.747L32.019 202.325C31.1137 201.123 29.6964 200.417 28.1916 200.417H28.0027C27.2427 200.417 26.4976 200.627 25.8495 201.024C23.915 202.209 21.3864 201.608 20.1921 199.679L19.1629 198.017C18.3546 196.711 16.9283 195.917 15.3927 195.917C14.4074 195.917 13.4502 195.588 12.6721 194.984L5.26584 189.23C4.36696 188.531 3.31136 188.063 2.19048 187.865C0.555359 187.575 -1.12935 187.877 -2.56276 188.715L-3.7874 189.431C-5.45088 190.404 -7.3432 190.917 -9.2702 190.917H-10.6929C-13.2331 190.917 -15.7374 191.517 -18.0013 192.669L-28.8249 198.178C-29.9829 198.767 -31.3888 198.543 -32.3065 197.623C-32.9134 197.015 -33.7524 196.696 -34.6103 196.748L-50.4441 197.71C-55.4005 198.012 -60.2505 199.277 -64.7224 201.435L-82.6941 210.11C-88.3698 212.849 -94.9459 213.031 -100.765 210.61L-103.758 209.364C-104.469 209.069 -105.231 208.917 -106 208.917C-107.343 208.917 -108.645 209.38 -109.686 210.228L-111.992 212.106C-114.615 214.243 -117.915 215.372 -121.297 215.291Z" fill="url(#paint4_linear_216_59)"/>
</g>
</g>
<g filter="url(#filter4_d_216_59)">
<path d="M155.104 172.12H251.872V209.56H155.104V172.12ZM158.56 283H111.904V81.4H264.256V118.84H158.56V283Z" fill="white"/>
</g>
</g>
<defs>
<filter id="filter0_i_216_59" x="0" y="0" width="360" height="364" filterUnits="userSpaceOnUse" color-interpolation-filters="sRGB">
<feFlood flood-opacity="0" result="BackgroundImageFix"/>
<feBlend mode="normal" in="SourceGraphic" in2="BackgroundImageFix" result="shape"/>
<feColorMatrix in="SourceAlpha" type="matrix" values="0 0 0 0 0 0 0 0 0 0 0 0 0 0 0 0 0 0 127 0" result="hardAlpha"/>
<feOffset dy="4"/>
<feGaussianBlur stdDeviation="31.5"/>
<feComposite in2="hardAlpha" operator="arithmetic" k2="-1" k3="1"/>
<feColorMatrix type="matrix" values="0 0 0 0 0 0 0 0 0 0 0 0 0 0 0 0 0 0 0.25 0"/>
<feBlend mode="normal" in2="shape" result="effect1_innerShadow_216_59"/>
</filter>
<filter id="filter1_d_216_59" x="-189" y="154.879" width="738.424" height="258.621" filterUnits="userSpaceOnUse" color-interpolation-filters="sRGB">
<feFlood flood-opacity="0" result="BackgroundImageFix"/>
<feColorMatrix in="SourceAlpha" type="matrix" values="0 0 0 0 0 0 0 0 0 0 0 0 0 0 0 0 0 0 127 0" result="hardAlpha"/>
<feOffset dy="4"/>
<feGaussianBlur stdDeviation="25"/>
<feComposite in2="hardAlpha" operator="out"/>
<feColorMatrix type="matrix" values="0 0 0 0 0 0 0 0 0 0 0 0 0 0 0 0 0 0 0.25 0"/>
<feBlend mode="normal" in2="BackgroundImageFix" result="effect1_dropShadow_216_59"/>
<feBlend mode="normal" in="SourceGraphic" in2="effect1_dropShadow_216_59" result="shape"/>
</filter>
<filter id="filter2_d_216_59" x="-189" y="85.1721" width="738.424" height="328.494" filterUnits="userSpaceOnUse" color-interpolation-filters="sRGB">
<feFlood flood-opacity="0" result="BackgroundImageFix"/>
<feColorMatrix in="SourceAlpha" type="matrix" values="0 0 0 0 0 0 0 0 0 0 0 0 0 0 0 0 0 0 127 0" result="hardAlpha"/>
<feOffset dy="4"/>
<feGaussianBlur stdDeviation="25"/>
<feComposite in2="hardAlpha" operator="out"/>
<feColorMatrix type="matrix" values="0 0 0 0 0 0 0 0 0 0 0 0 0 0 0 0 0 0 0.25 0"/>
<feBlend mode="normal" in2="BackgroundImageFix" result="effect1_dropShadow_216_59"/>
<feBlend mode="normal" in="SourceGraphic" in2="effect1_dropShadow_216_59" result="shape"/>
</filter>
<filter id="filter3_d_216_59" x="-189" y="133.758" width="738.424" height="272.409" filterUnits="userSpaceOnUse" color-interpolation-filters="sRGB">
<feFlood flood-opacity="0" result="BackgroundImageFix"/>
<feColorMatrix in="SourceAlpha" type="matrix" values="0 0 0 0 0 0 0 0 0 0 0 0 0 0 0 0 0 0 127 0" result="hardAlpha"/>
<feOffset dy="-4"/>
<feGaussianBlur stdDeviation="25"/>
<feComposite in2="hardAlpha" operator="out"/>
<feColorMatrix type="matrix" values="0 0 0 0 0 0 0 0 0 0 0 0 0 0 0 0 0 0 0.25 0"/>
<feBlend mode="normal" in2="BackgroundImageFix" result="effect1_dropShadow_216_59"/>
<feBlend mode="normal" in="SourceGraphic" in2="effect1_dropShadow_216_59" result="shape"/>
</filter>
<filter id="filter4_d_216_59" x="107.904" y="81.3999" width="160.352" height="209.6" filterUnits="userSpaceOnUse" color-interpolation-filters="sRGB">
<feFlood flood-opacity="0" result="BackgroundImageFix"/>
<feColorMatrix in="SourceAlpha" type="matrix" values="0 0 0 0 0 0 0 0 0 0 0 0 0 0 0 0 0 0 127 0" result="hardAlpha"/>
<feOffset dy="4"/>
<feGaussianBlur stdDeviation="2"/>
<feComposite in2="hardAlpha" operator="out"/>
<feColorMatrix type="matrix" values="0 0 0 0 0 0 0 0 0 0 0 0 0 0 0 0 0 0 0.25 0"/>
<feBlend mode="normal" in2="BackgroundImageFix" result="effect1_dropShadow_216_59"/>
<feBlend mode="normal" in="SourceGraphic" in2="effect1_dropShadow_216_59" result="shape"/>
</filter>
<linearGradient id="paint0_linear_216_59" x1="180" y1="0" x2="180" y2="360" gradientUnits="userSpaceOnUse">
<stop offset="0.0104167" stop-color="#5E7C92"/>
<stop offset="1" stop-color="white"/>
</linearGradient>
<linearGradient id="paint1_linear_216_59" x1="180.212" y1="127.917" x2="180.212" y2="359.667" gradientUnits="userSpaceOnUse">
<stop stop-color="#4F6D85"/>
<stop offset="1" stop-color="#648AA8"/>
</linearGradient>
<linearGradient id="paint2_linear_216_59" x1="354.157" y1="200" x2="354.157" y2="323.5" gradientUnits="userSpaceOnUse">
<stop stop-color="#405D75"/>
<stop offset="0.0001" stop-color="#405E76"/>
<stop offset="0.614583" stop-color="#2C4152"/>
</linearGradient>
<linearGradient id="paint3_linear_216_59" x1="149.912" y1="128.917" x2="149.912" y2="326.417" gradientUnits="userSpaceOnUse">
<stop stop-color="#304D65"/>
<stop offset="1" stop-color="#385871"/>
<stop offset="1" stop-color="#3A5D7A"/>
</linearGradient>
<linearGradient id="paint4_linear_216_59" x1="180.212" y1="187.417" x2="180.212" y2="360.167" gradientUnits="userSpaceOnUse">
<stop stop-color="#1C3846"/>
<stop offset="1" stop-color="#18303C"/>
</linearGradient>
</defs>
</svg>
