<svg width="32" height="32" viewBox="0 0 32 32" fill="none" xmlns="http://www.w3.org/2000/svg">
<g clip-path="url(#clip0_254_56)">
<path d="M27.1071 6.00996C25.0047 5.05745 22.7851 4.38171 20.5052 4C20.1933 4.5519 19.911 5.11973 19.6596 5.70112C17.231 5.33898 14.7614 5.33898 12.3328 5.70112C12.0813 5.11979 11.799 4.55197 11.4872 4C9.20579 4.38494 6.98482 5.06228 4.88027 6.01494C0.702194 12.132 -0.430416 18.0971 0.135889 23.9776C2.58267 25.7665 5.32132 27.127 8.23279 28C8.88837 27.1275 9.46847 26.2018 9.96694 25.2329C9.02016 24.883 8.10635 24.4512 7.23609 23.9427C7.46513 23.7783 7.68914 23.609 7.90559 23.4446C10.4378 24.623 13.2017 25.234 16 25.234C18.7983 25.234 21.5621 24.623 24.0944 23.4446C24.3133 23.6214 24.5373 23.7908 24.7639 23.9427C23.8919 24.4521 22.9764 24.8846 22.028 25.2354C22.5258 26.2039 23.106 27.1287 23.7621 28C26.6761 27.1305 29.4168 25.7707 31.8641 23.9801C32.5285 17.1606 30.7289 11.2503 27.1071 6.00996ZM10.6843 20.3611C9.10616 20.3611 7.8024 18.944 7.8024 17.2005C7.8024 15.457 9.06085 14.0274 10.6792 14.0274C12.2976 14.0274 13.5913 15.457 13.5636 17.2005C13.5359 18.944 12.2926 20.3611 10.6843 20.3611ZM21.3157 20.3611C19.7351 20.3611 18.4363 18.944 18.4363 17.2005C18.4363 15.457 19.6948 14.0274 21.3157 14.0274C22.9366 14.0274 24.2202 15.457 24.1925 17.2005C24.1648 18.944 22.924 20.3611 21.3157 20.3611Z" fill="white"/>
</g>
<defs>
<clipPath id="clip0_254_56">
<rect width="32" height="32" fill="white"/>
</clipPath>
</defs>
</svg>
