<svg width="32" height="32" viewBox="0 0 32 32" fill="none" xmlns="http://www.w3.org/2000/svg">
<g clip-path="url(#clip0_251_28)">
<path d="M11.9277 24.227C11.3285 24.4817 10.6517 24.4927 10.0414 24.2602L8.06641 23.4519C8.35489 24.0498 8.80982 24.5481 9.3757 24.8914C9.94158 25.2346 10.5962 25.4007 11.2509 25.3786C11.9166 25.3564 12.5491 25.146 13.0928 24.7696C13.6364 24.3931 14.0581 23.8616 14.3022 23.2526C14.5463 22.6436 14.6129 21.9682 14.4797 21.326C14.3466 20.6837 14.0359 20.0858 13.5699 19.6097C13.1039 19.1336 12.5158 18.8125 11.8722 18.6685C11.2287 18.5246 10.5518 18.5799 9.93048 18.8125L11.961 19.654C12.5602 19.9197 13.0262 20.4069 13.2703 21.0159C13.5144 21.6249 13.5033 22.3004 13.2592 22.8983C13.0151 23.4962 12.5269 23.9834 11.9277 24.2381V24.227Z" fill="white"/>
<path d="M24.4105 2.42491C21.8807 0.852595 18.9515 0.0221453 15.9778 0.0221453V0C11.939 0 8.06658 1.51695 5.10402 4.24083C2.14147 6.96471 0.321775 10.7073 0 14.7045L8.58807 18.2477C9.34258 17.7273 10.2302 17.4616 11.1401 17.4616H11.3953L15.2122 11.9363V11.8699C15.2122 10.674 15.5673 9.51142 16.233 8.51488C16.8988 7.51834 17.8419 6.75432 18.9404 6.28927C20.0499 5.83529 21.2594 5.71349 22.4355 5.94602C23.6117 6.17855 24.6879 6.75433 25.5312 7.59585C26.3745 8.43737 26.9515 9.51142 27.1845 10.6851C27.4175 11.8588 27.2954 13.0657 26.8405 14.173C26.3856 15.2803 25.6089 16.2215 24.6103 16.8747C23.6117 17.5391 22.4466 17.8934 21.2483 17.8934H21.1262L15.6782 21.7689V21.9792C15.6782 23.0976 15.2566 24.1827 14.5021 25.0131C13.7476 25.8436 12.7157 26.364 11.595 26.4747C10.4743 26.5855 9.35368 26.2754 8.45492 25.6111C7.54508 24.9467 6.92372 23.9723 6.7018 22.8761L0.554785 20.3626C1.36477 23.2304 2.96255 25.8104 5.1595 27.8145C7.35645 29.8187 10.0749 31.1806 13.0042 31.7232C15.9334 32.2768 18.9626 32 21.7365 30.926C24.5215 29.8519 26.9404 28.0249 28.7379 25.6554C30.5354 23.2858 31.6338 20.4512 31.9112 17.4948C32.1886 14.5273 31.6338 11.5488 30.3024 8.89135C28.9709 6.22284 26.9293 3.98616 24.3884 2.42491H24.4105Z" fill="white"/>
<path d="M19.0179 15.2138C19.6836 15.6567 20.4603 15.8892 21.2592 15.8892C22.3244 15.8892 23.3452 15.4685 24.0997 14.7155C24.8542 13.9626 25.2758 12.9439 25.2869 11.8809C25.2869 11.0837 25.0539 10.3086 24.6101 9.64424C24.1663 8.97988 23.5449 8.47053 22.8015 8.1605C22.0692 7.85046 21.2592 7.77296 20.4714 7.92797C19.6947 8.08299 18.9735 8.47053 18.4076 9.02417C17.8417 9.58887 17.4645 10.2975 17.3091 11.0837C17.1538 11.8588 17.2314 12.6671 17.5421 13.4089C17.8417 14.1397 18.3632 14.7709 19.0289 15.2138H19.0179ZM18.7405 10.1979C19.0733 9.6996 19.5394 9.31206 20.0941 9.07953C20.6489 8.847 21.2592 8.79164 21.8473 8.90237C22.4353 9.01309 22.979 9.30098 23.4007 9.73282C23.8223 10.1536 24.1108 10.6961 24.2328 11.283C24.3549 11.8698 24.2883 12.4788 24.0664 13.0325C23.8334 13.5861 23.445 14.0512 22.9568 14.3833C22.4575 14.7155 21.8694 14.8927 21.2703 14.8927C20.4714 14.8927 19.6947 14.5716 19.1288 14.0069C18.5629 13.4422 18.2412 12.6781 18.2412 11.8698C18.2412 11.2719 18.4187 10.6851 18.7516 10.1868L18.7405 10.1979Z" fill="white"/>
</g>
<defs>
<clipPath id="clip0_251_28">
<rect width="32" height="32" fill="white"/>
</clipPath>
</defs>
</svg>
