<svg width="32" height="32" viewBox="0 0 32 32" fill="none" xmlns="http://www.w3.org/2000/svg">
<g clip-path="url(#clip0_270_30)">
<path d="M28.8529 9.53691C28.8724 9.81348 28.8724 10.0901 28.8724 10.3692C28.8724 18.874 22.2683 28.6826 10.1924 28.6826V28.6775C6.62511 28.6826 3.13195 27.6808 0.128906 25.792C0.647614 25.8532 1.16892 25.8838 1.69153 25.8851C4.64778 25.8876 7.51952 24.9151 9.84526 23.1245C7.03591 23.0722 4.57238 21.2764 3.71176 18.6548C4.69588 18.8408 5.70989 18.8026 6.67581 18.5439C3.61296 17.9372 1.40943 15.299 1.40943 12.2351C1.40943 12.207 1.40943 12.1802 1.40943 12.1535C2.32204 12.6518 3.34386 12.9284 4.38907 12.959C1.50433 11.0689 0.615114 7.30652 2.35714 4.36495C5.69039 8.38603 10.6084 10.8305 15.8878 11.0893C15.3586 8.85378 16.0815 6.51123 17.7871 4.93976C20.4313 2.5029 24.5901 2.6278 27.0757 5.21888C28.5461 4.93466 29.9553 4.40574 31.2449 3.65633C30.7548 5.14623 29.7291 6.41182 28.3588 7.21603C29.6602 7.06564 30.9316 6.72407 32.1289 6.2028C31.2475 7.4977 30.1373 8.62564 28.8529 9.53691Z" fill="white"/>
</g>
<defs>
<clipPath id="clip0_270_30">
<rect width="32" height="32" fill="white"/>
</clipPath>
</defs>
</svg>
