<svg width="32" height="32" viewBox="0 0 32 32" fill="none" xmlns="http://www.w3.org/2000/svg">
<path d="M31.3336 7.59172C30.9648 6.17721 29.8821 5.06562 28.5044 4.68697C26.0072 4 16 4 16 4C16 4 5.99276 4 3.49819 4.68697C2.12051 5.06562 1.03787 6.17721 0.669081 7.59172C0 10.153 0 15.5 0 15.5C0 15.5 0 20.847 0.669081 23.4083C1.03787 24.8228 2.12051 25.9344 3.49819 26.313C5.99276 27 16 27 16 27C16 27 26.0072 27 28.5018 26.313C29.8795 25.9344 30.9621 24.8228 31.3309 23.4083C32 20.847 32 15.5 32 15.5C32 15.5 32 10.153 31.3309 7.59172H31.3336ZM12.7995 20.4278V10.5722L21.1129 15.5L12.7995 20.4278Z" fill="white"/>
</svg>
