<svg width="1920" height="570" viewBox="0 0 1920 570" fill="none" xmlns="http://www.w3.org/2000/svg">
<g filter="url(#filter0_d_68_83)">
<path d="M59.7901 137.031L8.48262 135.809C6.86313 135.771 5.26786 136.208 3.89415 137.066C1.47165 138.58 0 141.235 0 144.092V571.5H1920V459L1776.75 451.5L1680.75 433.5L1662.29 431.522C1660.6 431.341 1658.93 430.989 1657.32 430.47L1583.48 406.787C1581.34 406.1 1579.1 405.75 1576.86 405.75C1571.33 405.75 1566.01 403.641 1561.98 399.852L1559.59 397.603C1556.9 395.066 1553.67 393.159 1550.15 392.02L1430.25 353.25L1320.63 319.13C1318.22 318.381 1315.72 318 1313.2 318H1277.8C1274.96 318 1272.13 317.513 1269.44 316.561L1232.17 303.333C1228.76 302.125 1225.14 301.669 1221.54 301.996L1209.06 303.131C1204.6 303.536 1200.33 305.131 1196.7 307.749L1175.56 322.991C1171.95 325.597 1167.6 327 1163.14 327C1160.73 327 1158.34 326.589 1156.06 325.785L1101.17 306.37C1099.07 305.627 1096.87 305.168 1094.65 305.006L1031.06 300.369C1027.72 300.126 1024.46 299.213 1021.48 297.686L999.507 286.43C996.694 284.99 993.634 284.096 990.489 283.795L896.77 274.836C894.435 274.613 892.143 274.063 889.962 273.201L742.773 215.043C740.611 214.189 738.306 213.75 735.98 213.75C732.877 213.75 729.823 212.969 727.101 211.478L704.699 199.21C701.452 197.432 697.81 196.5 694.108 196.5C690.908 196.5 687.746 195.803 684.842 194.459L584.456 147.971C579.923 145.872 574.865 145.179 569.934 145.982L563.843 146.973C553.072 148.727 542.585 142.537 538.914 132.259C538.143 130.099 537.047 128.069 535.664 126.238L514.332 97.9866C511.604 94.3738 507.339 92.25 502.812 92.25H502.243C499.959 92.25 497.719 92.8803 495.77 94.0714C489.948 97.629 482.346 95.8221 478.749 90.0254L475.668 85.0629C473.232 81.1375 468.94 78.75 464.32 78.75C461.358 78.75 458.479 77.7652 456.138 75.9506L433.871 58.694C431.164 56.5962 427.988 55.189 424.615 54.5939C419.698 53.7262 414.633 54.6307 410.32 57.1464L404.838 60.3445C401.015 62.5748 396.668 63.75 392.241 63.75H380.233C376.3 63.75 372.422 64.6779 368.915 66.4583L331.336 85.537C327.855 87.3043 323.632 86.6323 320.872 83.8718C319.046 82.0455 316.524 81.0894 313.946 81.2457L248.655 85.2027C245.416 85.399 242.246 86.2241 239.322 87.6319L152.588 129.393C146.17 132.483 138.738 132.688 132.159 129.957L105.988 119.094C103.85 118.207 101.559 117.75 99.2446 117.75C95.2051 117.75 91.2886 119.14 88.1535 121.688L76.15 131.441C71.535 135.19 65.7346 137.172 59.7901 137.031Z" fill="url(#paint0_linear_68_83)"/>
</g>
<defs>
<filter id="filter0_d_68_83" x="-50" y="0.272827" width="2020" height="617.227" filterUnits="userSpaceOnUse" color-interpolation-filters="sRGB">
<feFlood flood-opacity="0" result="BackgroundImageFix"/>
<feColorMatrix in="SourceAlpha" type="matrix" values="0 0 0 0 0 0 0 0 0 0 0 0 0 0 0 0 0 0 127 0" result="hardAlpha"/>
<feOffset dy="-4"/>
<feGaussianBlur stdDeviation="25"/>
<feComposite in2="hardAlpha" operator="out"/>
<feColorMatrix type="matrix" values="0 0 0 0 0 0 0 0 0 0 0 0 0 0 0 0 0 0 0.25 0"/>
<feBlend mode="normal" in2="BackgroundImageFix" result="effect1_dropShadow_68_83"/>
<feBlend mode="normal" in="SourceGraphic" in2="effect1_dropShadow_68_83" result="shape"/>
</filter>
<linearGradient id="paint0_linear_68_83" x1="960" y1="53.25" x2="960" y2="571.5" gradientUnits="userSpaceOnUse">
<stop stop-color="#0D1921"/>
<stop offset="1" stop-color="#18303C"/>
</linearGradient>
</defs>
</svg>
