<svg width="1920" height="717" viewBox="0 0 1920 717" fill="none" xmlns="http://www.w3.org/2000/svg">
<g filter="url(#filter0_d_68_82)">
<path d="M29.2012 32.2201L0 24.75V692C0 705.807 11.1928 717 25 717H1895C1908.81 717 1920 705.807 1920 692V642.25C1920 628.443 1908.81 617.25 1895 617.25H1737.75L1563 527.25L1440.75 463.5L1382.17 427.781C1380.23 426.599 1378.14 425.687 1375.96 425.069L1305 405L1275 392.25L1232.9 373.305C1230.97 372.439 1228.95 371.819 1226.87 371.463L1206.36 367.947C1204.62 367.65 1202.93 367.171 1201.3 366.518L1188.75 361.5L1146.75 337.5L1085.25 295.5L1060.5 279.75L1031.64 264.634C1029.89 263.715 1028.03 263.007 1026.11 262.526L1025.33 262.333C1023.78 261.945 1022.27 261.41 1020.82 260.734L1000.5 251.25L967.5 239.25L917.25 223.5L898.896 214.979C897.138 214.162 895.291 213.553 893.392 213.164L869.486 208.26C867.833 207.921 866.15 207.75 864.462 207.75H839.069C837.692 207.75 836.317 207.636 834.959 207.41L828 206.25L811.5 205.5L787.844 201.445C786.119 201.149 784.369 201.035 782.62 201.105L766.5 201.75L749.134 203.754C747.714 203.918 746.283 203.959 744.855 203.879L709.434 201.874C707.981 201.791 706.538 201.582 705.121 201.249L694.5 198.75L678 194.25L656.284 190.178C654.765 189.893 653.222 189.75 651.677 189.75H617.658C615.396 189.75 613.145 190.057 610.967 190.662L606.829 191.811C602.839 192.92 598.636 193.02 594.598 192.102L584.25 189.75L550.5 180.75L523.335 170.149C520.959 169.222 518.455 168.664 515.91 168.494L511.249 168.183C509.422 168.061 507.614 167.739 505.857 167.223L487.176 161.728C484.413 160.916 481.53 160.586 478.654 160.756L477.475 160.825C472.755 161.103 468.053 160.036 463.915 157.749L441.75 145.5L406.5 130.5L384.75 119.25L342.36 94.822C341.122 94.1087 339.826 93.5027 338.484 93.0109L321.565 86.8073C319.202 85.9407 316.721 85.4361 314.207 85.3104L288 84L216 72L191.699 70.65C189.905 70.5503 188.127 70.2574 186.395 69.7764L150.57 59.8249C149.192 59.4423 147.851 58.9423 146.559 58.3304L124.449 47.8574C121.511 46.4658 118.33 45.6605 115.084 45.4867L82.2478 43.7276C79.4362 43.5769 76.6701 42.9524 74.0665 41.8803L57.0731 34.883C54.0536 33.6397 50.8198 33 47.5544 33H35.397C33.3072 33 31.2257 32.738 29.2012 32.2201Z" fill="url(#paint0_linear_68_82)"/>
</g>
<defs>
<filter id="filter0_d_68_82" x="-50" y="-21.25" width="2020" height="792.25" filterUnits="userSpaceOnUse" color-interpolation-filters="sRGB">
<feFlood flood-opacity="0" result="BackgroundImageFix"/>
<feColorMatrix in="SourceAlpha" type="matrix" values="0 0 0 0 0 0 0 0 0 0 0 0 0 0 0 0 0 0 127 0" result="hardAlpha"/>
<feOffset dy="4"/>
<feGaussianBlur stdDeviation="25"/>
<feComposite in2="hardAlpha" operator="out"/>
<feColorMatrix type="matrix" values="0 0 0 0 0 0 0 0 0 0 0 0 0 0 0 0 0 0 0.25 0"/>
<feBlend mode="normal" in2="BackgroundImageFix" result="effect1_dropShadow_68_82"/>
<feBlend mode="normal" in="SourceGraphic" in2="effect1_dropShadow_68_82" result="shape"/>
</filter>
<linearGradient id="paint0_linear_68_82" x1="868.875" y1="24.75" x2="868.875" y2="617.25" gradientUnits="userSpaceOnUse">
<stop stop-color="#263B4E"/>
<stop offset="0.984375" stop-color="#1F3545"/>
</linearGradient>
</defs>
</svg>
