<svg width="1920" height="694" viewBox="0 0 1920 694" fill="none" xmlns="http://www.w3.org/2000/svg">
<path d="M254.978 43.2927L219.648 64.2514C215.787 66.5415 211.381 67.75 206.893 67.75H25C11.1929 67.75 0 78.9429 0 92.75V669C0 682.807 11.1928 694 25 694H1895C1908.81 694 1920 682.807 1920 669V213.638C1920 201.996 1911.96 191.896 1900.62 189.278L1877.61 183.967C1873.44 183.005 1869.09 183.129 1864.99 184.327L1860.33 185.685C1855.71 187.033 1850.8 187.018 1846.18 185.643L1816.45 176.776C1812.54 175.61 1808.41 175.418 1804.41 176.219L1791.75 178.75L1763.7 182.089C1761.41 182.362 1759.09 182.316 1756.82 181.954L1729.63 177.629C1728.05 177.377 1726.49 176.973 1724.98 176.421L1695.76 165.744C1690.87 163.959 1685.56 163.742 1680.54 165.122L1642.57 175.579C1638.59 176.676 1634.39 176.768 1630.36 175.847L1614.26 172.167C1611.61 171.56 1608.87 171.391 1606.15 171.668L1576.25 174.72C1574.42 174.906 1572.62 175.293 1570.88 175.873L1537.7 186.933C1536.07 187.476 1534.39 187.85 1532.68 188.048L1508.34 190.879C1504.82 191.288 1501.25 190.944 1497.87 189.869L1488.5 186.887C1487.17 186.463 1485.88 185.928 1484.63 185.288L1438.97 161.763C1437.66 161.089 1436.29 160.532 1434.89 160.098L1356.75 136L1236.75 82.75L1216.06 75.4091C1214.36 74.8048 1212.6 74.3869 1210.8 74.1628L1163.08 68.197C1160.7 67.9006 1158.39 67.2654 1156.2 66.311L1115.45 48.5687C1113.82 47.8583 1112.12 47.324 1110.38 46.9751L1075.5 40L1012.87 35.1285C1009.65 34.8785 1006.42 35.2526 1003.35 36.2301L997.52 38.0845C993.569 39.3418 989.367 39.5964 985.293 38.8256L966.739 35.3156C964.754 34.9399 962.821 34.3249 960.984 33.484L925.697 17.3358C921.64 15.4792 917.159 14.7421 912.721 15.2012L903.466 16.1587C899.704 16.5478 895.904 16.0786 892.35 14.7863L880.538 10.4911C875.636 8.70844 870.299 8.50386 865.274 9.90599L840.75 16.75L829.681 18.9638C827.077 19.4846 824.406 19.5872 821.77 19.2676L801 16.75L781.918 12.3884C777.238 11.3188 772.35 11.619 767.836 13.2532L736.186 24.7128C732.931 25.8914 729.466 26.3811 726.012 26.1508L688.412 23.6441C686.973 23.5482 685.546 23.328 684.145 22.9859L630.055 9.77809C624.683 8.46609 619.022 9.04228 614.023 11.4099C609.768 13.4257 605.015 14.1505 600.352 13.4948L563.559 8.32086C560.871 7.94281 558.139 8.00516 555.471 8.50547L516.808 15.7547C513.31 16.4107 509.712 16.312 506.254 15.4653L480.759 9.2215C476.812 8.25507 472.69 8.26498 468.749 9.25037L468.033 9.42933C464.552 10.2996 460.924 10.4103 457.397 9.75402L408.732 0.700162C402.036 -0.545662 395.121 0.994649 389.587 4.96496L363.75 23.5L341.084 36.7677C335.872 39.819 329.731 40.88 323.797 39.7545L295.039 34.3005C291.392 33.6088 287.637 33.7379 284.046 34.6783L261.399 40.6098C259.144 41.2004 256.983 42.1034 254.978 43.2927Z" fill="url(#paint0_linear_68_80)"/>
<defs>
<linearGradient id="paint0_linear_68_80" x1="960" y1="-1.25" x2="960" y2="694" gradientUnits="userSpaceOnUse">
<stop stop-color="#2E4452"/>
<stop offset="1"/>
</linearGradient>
</defs>
</svg>
